<svg width="322" height="170" viewBox="0 0 322 170" fill="none" xmlns="http://www.w3.org/2000/svg">
<path d="M308.54 169.647C305.932 169.647 303.588 169.166 301.517 168.205C299.447 167.21 297.8 165.872 296.565 164.191C295.376 162.51 294.724 160.657 294.609 158.61H302.718C302.867 159.891 303.462 160.943 304.502 161.789C305.578 162.624 306.904 163.047 308.471 163.047C310.038 163.047 311.193 162.727 312.04 162.087C312.92 161.446 313.366 160.623 313.366 159.628C313.366 158.552 312.829 157.752 311.754 157.226C310.713 156.665 309.054 156.071 306.744 155.43C304.365 154.835 302.409 154.206 300.877 153.577C299.379 152.937 298.075 151.953 296.965 150.638C295.89 149.323 295.353 147.538 295.353 145.297C295.353 143.455 295.856 141.774 296.851 140.264C297.892 138.743 299.344 137.542 301.22 136.662C303.141 135.781 305.383 135.346 307.957 135.346C311.754 135.346 314.785 136.341 317.049 138.343C319.314 140.299 320.56 142.964 320.789 146.315H313.08C312.966 144.999 312.428 143.959 311.468 143.192C310.553 142.392 309.306 141.991 307.728 141.991C306.275 141.991 305.143 142.266 304.331 142.826C303.565 143.387 303.176 144.165 303.176 145.16C303.176 146.28 303.713 147.138 304.788 147.733C305.864 148.293 307.533 148.877 309.798 149.471C312.097 150.066 313.995 150.695 315.494 151.324C316.992 151.965 318.273 152.96 319.348 154.321C320.457 155.636 321.041 157.397 321.075 159.593C321.075 161.515 320.56 163.23 319.519 164.751C318.524 166.273 317.06 167.473 315.15 168.354C313.275 169.189 311.067 169.612 308.54 169.612V169.647Z" fill="white"/>
<path d="M286.294 143.158V159.33C286.294 160.451 286.546 161.286 287.038 161.801C287.575 162.281 288.456 162.521 289.68 162.521H293.42V169.647H288.353C281.559 169.647 278.174 166.181 278.174 159.273V143.158H274.377V136.216H278.174V127.947H286.283V136.216H293.42V143.158H286.283H286.294Z" fill="white"/>
<path d="M259.429 135.941C263.226 135.941 266.291 137.199 268.635 139.715C270.98 142.197 272.147 145.674 272.147 150.146V169.635H264.095V151.29C264.095 148.648 263.466 146.635 262.196 145.24C260.927 143.799 259.2 143.078 257.015 143.078C254.831 143.078 253.024 143.799 251.72 145.24C250.45 146.635 249.821 148.659 249.821 151.29V169.635H241.77V136.422H249.821V140.562C250.896 139.121 252.257 138 253.904 137.199C255.597 136.364 257.438 135.941 259.429 135.941Z" fill="white"/>
<path d="M238.763 151.77C238.763 152.971 238.683 154.046 238.534 155.007H215.236C215.431 157.409 216.231 159.284 217.65 160.645C219.068 162.006 220.818 162.681 222.888 162.681C225.884 162.681 228.012 161.343 229.27 158.667H237.962C237.047 161.869 235.274 164.5 232.667 166.581C230.059 168.617 226.857 169.635 223.06 169.635C219.994 169.635 217.227 168.937 214.779 167.542C212.366 166.101 210.467 164.088 209.083 161.48C207.745 158.884 207.07 155.888 207.07 152.491C207.07 149.094 207.745 146.04 209.083 143.433C210.421 140.836 212.309 138.835 214.722 137.439C217.135 136.044 219.914 135.335 223.06 135.335C226.205 135.335 228.789 136.01 231.168 137.371C233.582 138.732 235.446 140.665 236.75 143.181C238.088 145.663 238.763 148.522 238.763 151.759V151.77ZM230.425 149.38C230.391 147.218 229.636 145.503 228.183 144.222C226.731 142.906 224.947 142.243 222.831 142.243C220.841 142.243 219.148 142.884 217.764 144.165C216.426 145.4 215.602 147.138 215.294 149.38H230.425Z" fill="white"/>
<path d="M191.309 135.941C195.22 135.941 198.365 137.199 200.744 139.715C203.158 142.197 204.37 145.674 204.37 150.146V169.635H196.318V151.29C196.318 148.694 195.689 146.715 194.419 145.354C193.15 143.959 191.423 143.25 189.238 143.25C187.054 143.25 185.304 143.947 184 145.354C182.731 146.715 182.102 148.694 182.102 151.29V169.635H174.05V151.29C174.05 148.694 173.421 146.715 172.151 145.354C170.882 143.959 169.155 143.25 166.97 143.25C164.786 143.25 162.979 143.947 161.675 145.354C160.405 146.715 159.776 148.694 159.776 151.29V169.635H151.725V136.422H159.776V140.436C160.806 139.041 162.132 137.943 163.745 137.142C165.392 136.342 167.199 135.941 169.155 135.941C171.648 135.941 173.867 136.502 175.823 137.622C177.778 138.698 179.288 140.264 180.363 142.3C181.404 140.379 182.891 138.846 184.847 137.68C186.837 136.525 188.987 135.941 191.286 135.941H191.309Z" fill="white"/>
<path fill-rule="evenodd" clip-rule="evenodd" d="M112.725 57.8596H83.1711L112.725 81.2372V114.874L56.1221 70.4863L0 114.874V80.8484L29.0618 57.8596H0V0.982666H112.725V57.8596ZM81.9816 33.4871V25.3667H32.5273V33.4871H81.9816ZM125.626 0.982666V34.0132H158.13V42.3966H125.626V114.874H182.503V83.8106H149.998V73.46H182.503V0.982666H125.626ZM195.095 0.982666V114.874H251.972V0.982666H195.095ZM227.6 83.6505H219.479V34.1962H227.6V83.6505ZM264.576 114.874V0.982666H321.453V114.874H264.576ZM288.948 83.6505H297.069V34.1962H288.948V83.6505Z" fill="white"/>
<path d="M146.659 136.01V169.223H138.55V165.026C137.52 166.467 136.148 167.599 134.467 168.446C132.82 169.246 131.013 169.647 129.057 169.647C126.564 169.647 124.356 169.109 122.446 168.022C120.525 166.902 119.015 165.289 117.906 163.162C116.831 161 116.293 158.45 116.293 155.487V135.998H124.345V154.286C124.345 156.928 124.974 158.964 126.243 160.405C127.513 161.801 129.24 162.498 131.424 162.498C133.609 162.498 135.393 161.801 136.663 160.405C137.932 158.964 138.561 156.928 138.561 154.286V135.998H146.67L146.659 136.01Z" fill="white"/>
<path d="M104.239 141.58C105.28 139.818 106.618 138.446 108.265 137.439C109.958 136.444 111.868 135.941 114.018 135.941V144.759H111.891C109.363 144.759 107.442 145.377 106.138 146.624C104.868 147.859 104.239 150.02 104.239 153.097V169.647H96.1875V136.433H104.239V141.591V141.58Z" fill="white"/>
<path d="M86.1324 143.158V159.33C86.1324 160.451 86.384 161.286 86.8758 161.801C87.4133 162.281 88.294 162.521 89.5178 162.521H93.2577V169.635H88.1911C81.3974 169.635 78.012 166.181 78.012 159.262V143.158H74.2148V136.216H78.012V127.947H86.1209V136.216H93.2577V143.158H86.1209H86.1324Z" fill="white"/>
<path d="M60.4793 169.647C57.8716 169.647 55.527 169.166 53.4569 168.205C51.3868 167.21 49.7398 165.872 48.5046 164.191C47.3151 162.51 46.6632 160.657 46.5488 158.61H54.6578C54.8065 159.891 55.4012 160.943 56.442 161.789C57.5171 162.624 58.8438 163.047 60.4107 163.047C61.9776 163.047 63.1327 162.727 63.9791 162.087C64.8597 161.446 65.3058 160.623 65.3058 159.628C65.3058 158.552 64.7682 157.752 63.6931 157.226C62.6523 156.665 60.994 156.071 58.6837 155.43C56.3047 154.835 54.349 154.206 52.8164 153.577C51.3181 152.937 50.0143 151.953 48.9049 150.638C47.8298 149.323 47.2922 147.538 47.2922 145.297C47.2922 143.455 47.7955 141.774 48.7905 140.264C49.8313 138.743 51.2838 137.542 53.1595 136.662C55.081 135.781 57.3227 135.346 59.896 135.346C63.6932 135.346 66.724 136.341 68.9885 138.343C71.2531 140.299 72.4998 142.964 72.7285 146.315H65.0198C64.9055 144.999 64.3679 143.959 63.4072 143.192C62.4922 142.392 61.2456 141.991 59.6673 141.991C58.2147 141.991 57.0825 142.266 56.2704 142.826C55.5041 143.387 55.1153 144.165 55.1153 145.16C55.1153 146.28 55.6528 147.138 56.7279 147.733C57.803 148.293 59.4728 148.877 61.7374 149.471C64.0362 150.066 65.9348 150.695 67.4331 151.324C68.9314 151.965 70.2123 152.96 71.2874 154.321C72.3968 155.636 72.9801 157.397 73.0144 159.593C73.0144 161.515 72.4998 163.23 71.459 164.751C70.4639 166.273 69 167.473 67.09 168.354C65.2143 169.189 63.0069 169.612 60.4793 169.612V169.647Z" fill="white"/>
<path d="M30.7996 135.941C34.5967 135.941 37.6619 137.199 40.0065 139.715C42.3511 142.197 43.5177 145.674 43.5177 150.146V169.635H35.466V151.29C35.466 148.648 34.8369 146.635 33.5674 145.24C32.2979 143.799 30.5708 143.078 28.3863 143.078C26.2018 143.078 24.3948 143.799 23.0909 145.24C21.8214 146.635 21.1924 148.659 21.1924 151.29V169.635H13.1406V136.422H21.1924V140.562C22.2675 139.121 23.6285 138 25.2754 137.199C26.9681 136.364 28.8095 135.941 30.7996 135.941Z" fill="white"/>
<path d="M8.05174 127.787V169.635H0V127.787H8.05174Z" fill="white"/>
</svg>
