<svg width="509" height="1128" viewBox="0 0 509 1128" fill="none" xmlns="http://www.w3.org/2000/svg">
<path d="M327.996 380.05L305.246 357.3L290.196 372H218.796L166.996 320.55V179.5L218.796 127H290.546L342.346 179.5V320.55L326.596 335.95L349.346 359.05L327.996 380.05ZM198.146 309L232.446 343.3H276.546L311.196 309V190.7L276.546 155.7H232.796L198.146 190.7V309Z" fill="#4B4933"/>
<path fill-rule="evenodd" clip-rule="evenodd" d="M267.669 277.332L350.169 359.832L326.834 383.167L244.334 300.667L267.669 277.332Z" fill="#4B4933"/>
<path fill-rule="evenodd" clip-rule="evenodd" d="M142.358 0.857422L170.642 29.1417L41 158.784V344.215L170.642 473.857L142.358 502.142L1 360.784V142.215L142.358 0.857422ZM468.5 158.784L338.858 29.1417L367.142 0.857422L508.5 142.215V360.784L367.142 502.142L338.858 473.857L468.5 344.215V158.784Z" fill="#4B4933"/>
<path d="M160.211 997.25L239.661 752.25H268.361L347.811 997.25H315.611L299.161 946.85H208.511L192.061 997.25H160.211ZM217.611 917.8H290.061L253.661 806.15L217.611 917.8Z" fill="#4B4933"/>
<path fill-rule="evenodd" clip-rule="evenodd" d="M141.358 626.107L169.642 654.392L40 784.034V969.465L169.642 1099.11L141.358 1127.39L0 986.034V767.465L141.358 626.107ZM467.5 784.034L337.858 654.392L366.142 626.107L507.5 767.465V986.034L366.142 1127.39L337.858 1099.11L467.5 969.465V784.034Z" fill="#4B4933"/>
</svg>
