<svg width="1905" height="503" viewBox="0 0 1905 503" fill="none" xmlns="http://www.w3.org/2000/svg">
<path d="M326.996 380.05L304.246 357.3L289.196 372H217.796L165.996 320.55V179.5L217.796 127H289.546L341.346 179.5V320.55L325.596 335.95L348.346 359.05L326.996 380.05ZM197.146 309L231.446 343.3H275.546L310.196 309V190.7L275.546 155.7H231.796L197.146 190.7V309Z" fill="#4B4933"/>
<path fill-rule="evenodd" clip-rule="evenodd" d="M266.669 277.332L349.169 359.832L325.834 383.167L243.334 300.667L266.669 277.332Z" fill="#4B4933"/>
<path fill-rule="evenodd" clip-rule="evenodd" d="M141.358 0.857422L169.642 29.1417L40 158.784V344.215L169.642 473.857L141.358 502.142L0 360.784V142.215L141.358 0.857422ZM467.5 158.784L337.858 29.1417L366.142 0.857422L507.5 142.215V360.784L366.142 502.142L337.858 473.857L467.5 344.215V158.784Z" fill="#4B4933"/>
<mask id="mask0_5914_12476" style="mask-type:alpha" maskUnits="userSpaceOnUse" x="1397" y="0" width="508" height="503">
<path d="M1723.99 380.05L1701.24 357.3L1686.19 372H1614.79L1562.99 320.55V179.5L1614.79 127H1686.54L1738.34 179.5V320.55L1722.59 335.95L1745.34 359.05L1723.99 380.05ZM1594.14 309L1628.44 343.3H1672.54L1707.19 309V190.7L1672.54 155.7H1628.79L1594.14 190.7V309Z" fill="white"/>
<path d="M1552.5 15L1417 150.5V251.5" stroke="white" stroke-width="40"/>
<path d="M1552.5 488L1417 352.5V251.5" stroke="white" stroke-width="40"/>
<path d="M1749 15L1884.5 150.5V251.5" stroke="white" stroke-width="40"/>
<path d="M1749 488L1884.5 352.5V251.5" stroke="white" stroke-width="40"/>
<path d="M1734.5 371.5L1652 289" stroke="white" stroke-width="33"/>
</mask>
<g mask="url(#mask0_5914_12476)">
<rect x="1394" y="-5" width="513" height="513" fill="url(#paint0_radial_5914_12476)"/>
</g>
<path d="M1209.23 262.225C1215.42 256.026 1215.42 245.974 1209.23 239.775L1108.2 138.747C1102 132.547 1091.95 132.547 1085.75 138.747C1079.55 144.946 1079.55 154.998 1085.75 161.197L1175.55 251L1085.75 340.803C1079.55 347.002 1079.55 357.054 1085.75 363.253C1091.95 369.453 1102 369.453 1108.2 363.253L1209.23 262.225ZM705 266.875H1198V235.125H705V266.875Z" fill="black"/>
<defs>
<radialGradient id="paint0_radial_5914_12476" cx="0" cy="0" r="1" gradientUnits="userSpaceOnUse" gradientTransform="translate(1650.5 251.5) rotate(90) scale(256.5)">
<stop offset="0.0986785" stop-color="white"/>
<stop offset="1" stop-color="#969C9C"/>
</radialGradient>
</defs>
</svg>
