<svg width="1940" height="823" viewBox="0 0 1940 823" fill="none" xmlns="http://www.w3.org/2000/svg">
<path d="M814.721 156.5V266H790.471V161.5H742.721V266H718.471V161.5H670.721V266H646.471V139.75H664.721L670.721 150L688.471 139.75H713.721L736.971 153.25L760.471 139.75H785.721L814.721 156.5ZM953.473 244.25V266H883.723L854.723 249.25V156.5L883.723 139.75H924.473L953.473 156.5V212H878.973V244.25H953.473ZM878.973 161.5V190.25H929.223V161.5H878.973ZM983.395 162.75V141H1006.39V120L1030.64 106V141H1060.64V162.75H1030.64V244.25H1060.64V266H1035.39L1006.39 249.25V162.75H983.395ZM1194.44 244.25V266H1124.69L1095.69 249.25V156.5L1124.69 139.75H1165.44L1194.44 156.5V212H1119.94V244.25H1194.44ZM1119.94 161.5V190.25H1170.19V161.5H1119.94ZM1304.11 162.75H1258.61V266H1234.36V141H1252.61L1258.61 151.25L1276.36 141H1304.11V162.75Z" fill="#CF9EFF"/>
<path fill-rule="evenodd" clip-rule="evenodd" d="M1910 219.5V331.5H1940V189.5L1388.5 189.5V219.5L1910 219.5ZM0 330.998V189.5L554.5 189.5V219.5L30 219.5V330.998H0Z" fill="#CF9EFF"/>
<path fill-rule="evenodd" clip-rule="evenodd" d="M346 481H54V773H346V481ZM4 431V823H396V431H4Z" fill="#4B4933"/>
<path d="M113.365 680.5C94.315 680.5 78.865 664.75 78.865 646.45H92.215C92.215 658.45 101.515 668.2 113.365 668.2C125.365 668.2 134.515 658.45 134.515 646.45C134.515 634.45 125.065 625 113.065 625H86.515L123.565 586.3H79.315V574H141.115V585.85L115.765 612.7C134.965 614.2 147.865 630.25 147.865 646.45C147.865 664.3 132.715 680.5 113.365 680.5ZM166.67 679L217.82 574H232.07L180.92 679H166.67ZM255.112 679V666.7H279.262V638.8H255.112V626.8L299.812 569.5L310.012 577.45L271.612 626.5H316.912V638.8H292.612V666.7H316.912V679H255.112Z" fill="#4B4933"/>
<mask id="mask0_5914_12197" style="mask-type:alpha" maskUnits="userSpaceOnUse" x="512" y="431" width="392" height="392">
<rect x="537" y="456" width="342" height="342" stroke="#4B4933" stroke-width="50"/>
<path d="M590.556 679V666.7H614.706V638.8H590.556V626.8L635.256 569.5L645.456 577.45L607.056 626.5H652.356V638.8H628.056V666.7H652.356V679H590.556ZM675.329 679L726.479 574H740.729L689.579 679H675.329ZM763.771 679V666.7H787.921V638.8H763.771V626.8L808.471 569.5L818.671 577.45L780.271 626.5H825.571V638.8H801.271V666.7H825.571V679H763.771Z" fill="#4B4933"/>
</mask>
<g mask="url(#mask0_5914_12197)">
<rect x="451" y="371" width="513" height="513" fill="url(#paint0_radial_5914_12197)"/>
</g>
<path fill-rule="evenodd" clip-rule="evenodd" d="M1362 481H1070V773H1362V481ZM1020 431V823H1412V431H1020Z" fill="#4B4933"/>
<path d="M1105.85 679.3L1099.25 668.5L1147.7 638.8H1099.1V574H1160.9V586.3H1112.45V626.5H1160.9V645.25L1105.85 679.3ZM1180.84 679L1231.99 574H1246.24L1195.09 679H1180.84ZM1269.28 679V666.7H1293.43V638.8H1269.28V626.8L1313.98 569.5L1324.18 577.45L1285.78 626.5H1331.08V638.8H1306.78V666.7H1331.08V679H1269.28Z" fill="#4B4933"/>
<path fill-rule="evenodd" clip-rule="evenodd" d="M1870 481H1578V773H1870V481ZM1528 431V823H1920V431H1528Z" fill="#4B4933"/>
<path d="M1619.03 682.3L1607.48 676L1654.73 586.3H1607.48V574H1669.28V587.35L1619.03 682.3ZM1686.06 679L1737.21 574H1751.46L1700.31 679H1686.06ZM1774.5 679V666.7H1798.65V638.8H1774.5V626.8L1819.2 569.5L1829.4 577.45L1791 626.5H1836.3V638.8H1812V666.7H1836.3V679H1774.5Z" fill="#4B4933"/>
<defs>
<radialGradient id="paint0_radial_5914_12197" cx="0" cy="0" r="1" gradientUnits="userSpaceOnUse" gradientTransform="translate(707.5 627.5) rotate(90) scale(256.5)">
<stop offset="0.0986785" stop-color="white"/>
<stop offset="1" stop-color="#969C9C"/>
</radialGradient>
</defs>
</svg>
