<svg width="919" height="4316" viewBox="0 0 919 4316" fill="none" xmlns="http://www.w3.org/2000/svg">
<path fill-rule="evenodd" clip-rule="evenodd" d="M219.5 374.25V614.974H199.5V504.612H20V2848.25H269V2868.25H0V484.612H199.5V374.25H219.5Z" fill="#CF9EFF"/>
<mask id="mask0_5915_12510" style="mask-type:alpha" maskUnits="userSpaceOnUse" x="359" y="572" width="410" height="410">
<rect x="374" y="587" width="380" height="380" stroke="white" stroke-width="30"/>
<path d="M564 685.8L564 869.72" stroke="white" stroke-width="30"/>
<path d="M498.641 734.06L562.861 669.84" stroke="white" stroke-width="30" stroke-linecap="round"/>
<path d="M628.98 734.06L564.76 669.84" stroke="white" stroke-width="30" stroke-linecap="round"/>
<path d="M498.641 821.08L562.861 885.3" stroke="white" stroke-width="30" stroke-linecap="round"/>
<path d="M628.98 821.08L564.76 885.3" stroke="white" stroke-width="30" stroke-linecap="round"/>
</mask>
<g mask="url(#mask0_5915_12510)">
<rect x="358" y="571" width="412" height="412" fill="url(#paint0_radial_5915_12510)"/>
</g>
<path fill-rule="evenodd" clip-rule="evenodd" d="M554.216 259.01C541.294 272.609 524.038 283.52 501.077 283.52H439.122L439.121 243.52H501.077C509.845 243.52 517.29 239.802 525.219 231.456C533.658 222.576 541.047 210.126 549.355 195.249C550.114 193.89 550.884 192.504 551.665 191.096C558.841 178.178 566.996 163.495 576.523 152.004C587.395 138.888 602.844 126.48 624.576 126.48H687.276V166.48H624.576C619.897 166.48 614.637 168.703 607.317 177.532C600.305 185.991 593.995 197.315 586.33 211.072C585.657 212.28 584.973 213.507 584.278 214.752C576.246 229.135 566.63 245.945 554.216 259.01Z" fill="#4B4933"/>
<path fill-rule="evenodd" clip-rule="evenodd" d="M358 0H768V410H358V0ZM388 30V380H738V30H388Z" fill="#4B4933"/>
<path fill-rule="evenodd" clip-rule="evenodd" d="M396.007 1513.88C396.007 1427.99 471.225 1358.25 563.906 1358.25C656.586 1358.25 731.805 1427.99 731.805 1513.88L731.805 4159.6C731.805 4245.5 656.586 4315.25 563.906 4315.25C471.226 4315.25 396.007 4245.5 396.007 4159.6L396.007 1513.88Z" fill="url(#paint1_linear_5915_12510)"/>
<path fill-rule="evenodd" clip-rule="evenodd" d="M415.994 1540.04C415.994 1455.71 482.258 1387.25 563.905 1387.25C645.552 1387.25 711.816 1455.71 711.816 1540.04L711.817 4137.44C711.817 4221.77 645.553 4290.25 563.906 4290.25C482.259 4290.25 415.995 4221.77 415.995 4137.44L415.994 1540.04Z" fill="black"/>
<g opacity="0.5" filter="url(#filter0_f_5915_12510)">
<path d="M455.969 2542.59L712.327 2542.59L818.902 2850.48L818.902 3299.97L584.148 3299.97L455.969 3158.38L455.969 2542.59Z" fill="black"/>
</g>
<path d="M435.982 2522.59L692.34 2522.59L692.34 3138.38L435.982 3138.38L435.982 2522.59Z" fill="url(#paint2_linear_5915_12510)"/>
<path d="M449.127 2567.97L678.988 2567.97L678.988 3092.97L449.127 3092.97L449.127 2567.97Z" fill="#2A2A2A"/>
<path d="M435.982 2747.1L692.34 2747.1L692.34 2913.87L435.982 2913.87L435.982 2747.1Z" fill="#FAFAFA"/>
<path d="M436.135 2746.97L691.98 2746.97L691.98 2772.97L436.135 2772.97L436.135 2746.97Z" fill="#8F8F8F"/>
<defs>
<filter id="filter0_f_5915_12510" x="355.969" y="2442.59" width="562.934" height="957.384" filterUnits="userSpaceOnUse" color-interpolation-filters="sRGB">
<feFlood flood-opacity="0" result="BackgroundImageFix"/>
<feBlend mode="normal" in="SourceGraphic" in2="BackgroundImageFix" result="shape"/>
<feGaussianBlur stdDeviation="50" result="effect1_foregroundBlur_5915_12510"/>
</filter>
<radialGradient id="paint0_radial_5915_12510" cx="0" cy="0" r="1" gradientUnits="userSpaceOnUse" gradientTransform="translate(564 777) rotate(90) scale(206)">
<stop offset="0.125124" stop-color="white"/>
<stop offset="1" stop-color="#969C9C"/>
</radialGradient>
<linearGradient id="paint1_linear_5915_12510" x1="563.906" y1="1358.25" x2="563.906" y2="4315.25" gradientUnits="userSpaceOnUse">
<stop stop-color="white" stop-opacity="0.09"/>
<stop offset="0.953426" stop-color="white" stop-opacity="0.15"/>
<stop offset="1" stop-color="white" stop-opacity="0.42"/>
</linearGradient>
<linearGradient id="paint2_linear_5915_12510" x1="464.118" y1="2557.47" x2="632.704" y2="3137.92" gradientUnits="userSpaceOnUse">
<stop stop-color="#828282"/>
<stop offset="0.101114" stop-color="#474747"/>
<stop offset="1" stop-color="#101010"/>
</linearGradient>
</defs>
</svg>
