<svg width="1017" height="11049" viewBox="0 0 1017 11049" fill="none" xmlns="http://www.w3.org/2000/svg">
<path fill-rule="evenodd" clip-rule="evenodd" d="M508.5 630C516.784 630 523.5 636.716 523.5 645V10366C523.5 10374.3 516.784 10381 508.5 10381C500.216 10381 493.5 10374.3 493.5 10366V645C493.5 636.716 500.216 630 508.5 630Z" fill="#EFEFEF"/>
<circle cx="508.5" cy="10414" r="407" fill="#141414"/>
<g filter="url(#filter0_d_5914_12480)">
<circle cx="508.5" cy="10414" r="399" stroke="url(#paint0_linear_5914_12480)" stroke-width="16" shape-rendering="crispEdges"/>
</g>
<circle cx="508.499" cy="10414" r="394.147" fill="url(#paint1_linear_5914_12480)"/>
<g style="mix-blend-mode:multiply">
<rect x="114.352" y="10377.2" width="788.295" height="94.2526" fill="url(#paint2_linear_5914_12480)"/>
</g>
<g style="mix-blend-mode:lighten">
<rect x="114.352" y="10377.2" width="788.295" height="94.2526" fill="url(#paint3_linear_5914_12480)"/>
</g>
<circle cx="508.5" cy="10414" r="256.196" fill="#5E5E5E"/>
<g filter="url(#filter1_d_5914_12480)">
<circle cx="508.5" cy="10414" r="235" fill="black"/>
<circle cx="508.5" cy="10414" r="201.5" stroke="url(#paint4_radial_5914_12480)" stroke-width="67"/>
</g>
<path d="M389.376 10112.1C386.177 10044.3 440.268 9987.6 508.124 9987.6C576.262 9987.6 630.458 10044.8 626.836 10112.8L612.299 10385.9C609.328 10441.7 563.2 10485.4 507.301 10485.4C451.157 10485.4 404.918 10441.3 402.271 10385.3L389.376 10112.1Z" fill="url(#paint5_radial_5914_12480)"/>
<path d="M389.376 10112.1C386.177 10044.3 440.268 9987.6 508.124 9987.6C576.262 9987.6 630.458 10044.8 626.836 10112.8L612.299 10385.9C609.328 10441.7 563.2 10485.4 507.301 10485.4C451.157 10485.4 404.918 10441.3 402.271 10385.3L389.376 10112.1Z" fill="url(#paint6_linear_5914_12480)"/>
<circle cx="508.5" cy="10105" r="117" fill="url(#paint7_radial_5914_12480)"/>
<circle cx="508.687" cy="4826" r="407" fill="#141414"/>
<g filter="url(#filter2_d_5914_12480)">
<circle cx="508.687" cy="4826" r="399" stroke="url(#paint8_linear_5914_12480)" stroke-width="16" shape-rendering="crispEdges"/>
</g>
<circle cx="508.686" cy="4826" r="394.147" fill="url(#paint9_linear_5914_12480)"/>
<g style="mix-blend-mode:multiply">
<rect x="114.539" y="4789.16" width="788.295" height="94.2526" fill="url(#paint10_linear_5914_12480)"/>
</g>
<g style="mix-blend-mode:lighten">
<rect x="114.539" y="4789.16" width="788.295" height="94.2526" fill="url(#paint11_linear_5914_12480)"/>
</g>
<circle cx="508.688" cy="4826" r="256.196" fill="#5E5E5E"/>
<g filter="url(#filter3_d_5914_12480)">
<circle cx="508.688" cy="4826" r="235" fill="black"/>
<circle cx="508.688" cy="4826" r="201.5" stroke="url(#paint12_radial_5914_12480)" stroke-width="67"/>
</g>
<path d="M389.564 4524.08C386.364 4456.3 440.455 4399.6 508.311 4399.6C576.45 4399.6 630.645 4456.75 627.023 4524.79L612.487 4797.88C609.516 4853.7 563.388 4897.44 507.488 4897.44C451.345 4897.44 405.105 4853.33 402.458 4797.25L389.564 4524.08Z" fill="url(#paint13_radial_5914_12480)"/>
<path d="M389.564 4524.08C386.364 4456.3 440.455 4399.6 508.311 4399.6C576.45 4399.6 630.645 4456.75 627.023 4524.79L612.487 4797.88C609.516 4853.7 563.388 4897.44 507.488 4897.44C451.345 4897.44 405.105 4853.33 402.458 4797.25L389.564 4524.08Z" fill="url(#paint14_linear_5914_12480)"/>
<circle cx="508.688" cy="4517" r="117" fill="url(#paint15_radial_5914_12480)"/>
<circle cx="508.781" cy="7620" r="407" fill="#141414"/>
<g filter="url(#filter4_d_5914_12480)">
<circle cx="508.781" cy="7620" r="399" stroke="url(#paint16_linear_5914_12480)" stroke-width="16" shape-rendering="crispEdges"/>
</g>
<circle cx="508.78" cy="7620" r="394.147" fill="url(#paint17_linear_5914_12480)"/>
<g style="mix-blend-mode:multiply">
<rect x="114.633" y="7583.16" width="788.295" height="94.2526" fill="url(#paint18_linear_5914_12480)"/>
</g>
<g style="mix-blend-mode:lighten">
<rect x="114.633" y="7583.16" width="788.295" height="94.2526" fill="url(#paint19_linear_5914_12480)"/>
</g>
<circle cx="508.782" cy="7620" r="256.196" fill="#5E5E5E"/>
<g filter="url(#filter5_d_5914_12480)">
<circle cx="508.781" cy="7620" r="235" fill="black"/>
<circle cx="508.781" cy="7620" r="201.5" stroke="url(#paint20_radial_5914_12480)" stroke-width="67"/>
</g>
<path d="M389.657 7318.08C386.458 7250.3 440.549 7193.6 508.405 7193.6C576.543 7193.6 630.739 7250.75 627.117 7318.79L612.581 7591.88C609.609 7647.7 563.481 7691.44 507.582 7691.44C451.439 7691.44 405.199 7647.33 402.552 7591.25L389.657 7318.08Z" fill="url(#paint21_radial_5914_12480)"/>
<path d="M389.657 7318.08C386.458 7250.3 440.549 7193.6 508.405 7193.6C576.543 7193.6 630.739 7250.75 627.117 7318.79L612.581 7591.88C609.609 7647.7 563.481 7691.44 507.582 7691.44C451.439 7691.44 405.199 7647.33 402.552 7591.25L389.657 7318.08Z" fill="url(#paint22_linear_5914_12480)"/>
<circle cx="508.781" cy="7311" r="117" fill="url(#paint23_radial_5914_12480)"/>
<circle cx="508.594" cy="2032" r="407" fill="#141414"/>
<g filter="url(#filter6_d_5914_12480)">
<circle cx="508.594" cy="2032" r="399" stroke="url(#paint24_linear_5914_12480)" stroke-width="16" shape-rendering="crispEdges"/>
</g>
<circle cx="508.593" cy="2032" r="394.147" fill="url(#paint25_linear_5914_12480)"/>
<g style="mix-blend-mode:multiply">
<rect x="114.445" y="1995.16" width="788.295" height="94.2526" fill="url(#paint26_linear_5914_12480)"/>
</g>
<g style="mix-blend-mode:lighten">
<rect x="114.445" y="1995.16" width="788.295" height="94.2526" fill="url(#paint27_linear_5914_12480)"/>
</g>
<circle cx="508.594" cy="2032" r="256.196" fill="#5E5E5E"/>
<g filter="url(#filter7_d_5914_12480)">
<circle cx="508.594" cy="2032" r="235" fill="black"/>
<circle cx="508.594" cy="2032" r="201.5" stroke="url(#paint28_radial_5914_12480)" stroke-width="67"/>
</g>
<path d="M389.47 1730.08C386.27 1662.3 440.361 1605.6 508.218 1605.6C576.356 1605.6 630.551 1662.75 626.929 1730.79L612.393 2003.88C609.422 2059.7 563.294 2103.44 507.395 2103.44C451.251 2103.44 405.012 2059.33 402.364 2003.25L389.47 1730.08Z" fill="url(#paint29_radial_5914_12480)"/>
<path d="M389.47 1730.08C386.27 1662.3 440.361 1605.6 508.218 1605.6C576.356 1605.6 630.551 1662.75 626.929 1730.79L612.393 2003.88C609.422 2059.7 563.294 2103.44 507.395 2103.44C451.251 2103.44 405.012 2059.33 402.364 2003.25L389.47 1730.08Z" fill="url(#paint30_linear_5914_12480)"/>
<circle cx="508.594" cy="1723" r="117" fill="url(#paint31_radial_5914_12480)"/>
<circle cx="508.687" cy="9017" r="407" fill="#141414"/>
<g filter="url(#filter8_d_5914_12480)">
<circle cx="508.687" cy="9017" r="399" stroke="url(#paint32_linear_5914_12480)" stroke-width="16" shape-rendering="crispEdges"/>
</g>
<circle cx="508.686" cy="9017" r="394.147" fill="url(#paint33_linear_5914_12480)"/>
<g style="mix-blend-mode:multiply">
<rect x="114.539" y="8980.16" width="788.295" height="94.2526" fill="url(#paint34_linear_5914_12480)"/>
</g>
<g style="mix-blend-mode:lighten">
<rect x="114.539" y="8980.16" width="788.295" height="94.2526" fill="url(#paint35_linear_5914_12480)"/>
</g>
<circle cx="508.688" cy="9017" r="256.196" fill="#5E5E5E"/>
<g filter="url(#filter9_d_5914_12480)">
<circle cx="508.688" cy="9017" r="235" fill="black"/>
<circle cx="508.688" cy="9017" r="201.5" stroke="url(#paint36_radial_5914_12480)" stroke-width="67"/>
</g>
<path d="M389.564 8715.08C386.364 8647.3 440.455 8590.6 508.311 8590.6C576.45 8590.6 630.645 8647.75 627.023 8715.79L612.487 8988.88C609.516 9044.7 563.388 9088.44 507.488 9088.44C451.345 9088.44 405.105 9044.33 402.458 8988.25L389.564 8715.08Z" fill="url(#paint37_radial_5914_12480)"/>
<path d="M389.564 8715.08C386.364 8647.3 440.455 8590.6 508.311 8590.6C576.45 8590.6 630.645 8647.75 627.023 8715.79L612.487 8988.88C609.516 9044.7 563.388 9088.44 507.488 9088.44C451.345 9088.44 405.105 9044.33 402.458 8988.25L389.564 8715.08Z" fill="url(#paint38_linear_5914_12480)"/>
<circle cx="508.688" cy="8708" r="117" fill="url(#paint39_radial_5914_12480)"/>
<circle cx="508.5" cy="3429" r="407" fill="#141414"/>
<g filter="url(#filter10_d_5914_12480)">
<circle cx="508.5" cy="3429" r="399" stroke="url(#paint40_linear_5914_12480)" stroke-width="16" shape-rendering="crispEdges"/>
</g>
<circle cx="508.499" cy="3429" r="394.147" fill="url(#paint41_linear_5914_12480)"/>
<g style="mix-blend-mode:multiply">
<rect x="114.352" y="3392.16" width="788.295" height="94.2526" fill="url(#paint42_linear_5914_12480)"/>
</g>
<g style="mix-blend-mode:lighten">
<rect x="114.352" y="3392.16" width="788.295" height="94.2526" fill="url(#paint43_linear_5914_12480)"/>
</g>
<circle cx="508.5" cy="3429" r="256.196" fill="#5E5E5E"/>
<g filter="url(#filter11_d_5914_12480)">
<circle cx="508.5" cy="3429" r="235" fill="black"/>
<circle cx="508.5" cy="3429" r="201.5" stroke="url(#paint44_radial_5914_12480)" stroke-width="67"/>
</g>
<path d="M389.376 3127.08C386.177 3059.3 440.268 3002.6 508.124 3002.6C576.262 3002.6 630.458 3059.75 626.836 3127.79L612.299 3400.88C609.328 3456.7 563.2 3500.44 507.301 3500.44C451.157 3500.44 404.918 3456.33 402.271 3400.25L389.376 3127.08Z" fill="url(#paint45_radial_5914_12480)"/>
<path d="M389.376 3127.08C386.177 3059.3 440.268 3002.6 508.124 3002.6C576.262 3002.6 630.458 3059.75 626.836 3127.79L612.299 3400.88C609.328 3456.7 563.2 3500.44 507.301 3500.44C451.157 3500.44 404.918 3456.33 402.271 3400.25L389.376 3127.08Z" fill="url(#paint46_linear_5914_12480)"/>
<circle cx="508.5" cy="3120" r="117" fill="url(#paint47_radial_5914_12480)"/>
<circle cx="508.867" cy="6223" r="407" fill="#141414"/>
<g filter="url(#filter12_d_5914_12480)">
<circle cx="508.867" cy="6223" r="399" stroke="url(#paint48_linear_5914_12480)" stroke-width="16" shape-rendering="crispEdges"/>
</g>
<circle cx="508.866" cy="6223" r="394.147" fill="url(#paint49_linear_5914_12480)"/>
<g style="mix-blend-mode:multiply">
<rect x="114.719" y="6186.16" width="788.295" height="94.2526" fill="url(#paint50_linear_5914_12480)"/>
</g>
<g style="mix-blend-mode:lighten">
<rect x="114.719" y="6186.16" width="788.295" height="94.2526" fill="url(#paint51_linear_5914_12480)"/>
</g>
<circle cx="508.868" cy="6223" r="256.196" fill="#5E5E5E"/>
<g filter="url(#filter13_d_5914_12480)">
<circle cx="508.867" cy="6223" r="235" fill="black"/>
<circle cx="508.867" cy="6223" r="201.5" stroke="url(#paint52_radial_5914_12480)" stroke-width="67"/>
</g>
<path d="M389.743 5921.08C386.544 5853.3 440.635 5796.6 508.491 5796.6C576.629 5796.6 630.825 5853.75 627.203 5921.79L612.667 6194.88C609.695 6250.7 563.567 6294.44 507.668 6294.44C451.524 6294.44 405.285 6250.33 402.638 6194.25L389.743 5921.08Z" fill="url(#paint53_radial_5914_12480)"/>
<path d="M389.743 5921.08C386.544 5853.3 440.635 5796.6 508.491 5796.6C576.629 5796.6 630.825 5853.75 627.203 5921.79L612.667 6194.88C609.695 6250.7 563.567 6294.44 507.668 6294.44C451.524 6294.44 405.285 6250.33 402.638 6194.25L389.743 5921.08Z" fill="url(#paint54_linear_5914_12480)"/>
<circle cx="508.867" cy="5914" r="117" fill="url(#paint55_radial_5914_12480)"/>
<circle cx="508.687" cy="635" r="407" fill="#141414"/>
<g filter="url(#filter14_d_5914_12480)">
<circle cx="508.687" cy="635" r="399" stroke="url(#paint56_linear_5914_12480)" stroke-width="16" shape-rendering="crispEdges"/>
</g>
<circle cx="508.686" cy="635" r="394.147" fill="url(#paint57_linear_5914_12480)"/>
<g style="mix-blend-mode:multiply">
<rect x="114.539" y="598.156" width="788.295" height="94.2526" fill="url(#paint58_linear_5914_12480)"/>
</g>
<g style="mix-blend-mode:lighten">
<rect x="114.539" y="598.156" width="788.295" height="94.2526" fill="url(#paint59_linear_5914_12480)"/>
</g>
<circle cx="508.688" cy="635" r="256.196" fill="#5E5E5E"/>
<g filter="url(#filter15_d_5914_12480)">
<circle cx="508.688" cy="635" r="235" fill="black"/>
<circle cx="508.688" cy="635" r="201.5" stroke="url(#paint60_radial_5914_12480)" stroke-width="67"/>
</g>
<path d="M389.564 333.08C386.364 265.3 440.455 208.595 508.311 208.595C576.45 208.595 630.645 265.752 627.023 333.794L612.487 606.883C609.516 662.703 563.388 706.441 507.488 706.441C451.345 706.441 405.105 662.333 402.458 606.252L389.564 333.08Z" fill="url(#paint61_radial_5914_12480)"/>
<path d="M389.564 333.08C386.364 265.3 440.455 208.595 508.311 208.595C576.45 208.595 630.645 265.752 627.023 333.794L612.487 606.883C609.516 662.703 563.388 706.441 507.488 706.441C451.345 706.441 405.105 662.333 402.458 606.252L389.564 333.08Z" fill="url(#paint62_linear_5914_12480)"/>
<circle cx="508.688" cy="326" r="117" fill="url(#paint63_radial_5914_12480)"/>
<defs>
<filter id="filter0_d_5914_12480" x="67.5" y="9973" width="922" height="922" filterUnits="userSpaceOnUse" color-interpolation-filters="sRGB">
<feFlood flood-opacity="0" result="BackgroundImageFix"/>
<feColorMatrix in="SourceAlpha" type="matrix" values="0 0 0 0 0 0 0 0 0 0 0 0 0 0 0 0 0 0 127 0" result="hardAlpha"/>
<feMorphology radius="15" operator="dilate" in="SourceAlpha" result="effect1_dropShadow_5914_12480"/>
<feOffset dx="20" dy="20"/>
<feGaussianBlur stdDeviation="19.5"/>
<feComposite in2="hardAlpha" operator="out"/>
<feColorMatrix type="matrix" values="0 0 0 0 0 0 0 0 0 0 0 0 0 0 0 0 0 0 0.25 0"/>
<feBlend mode="normal" in2="BackgroundImageFix" result="effect1_dropShadow_5914_12480"/>
<feBlend mode="normal" in="SourceGraphic" in2="effect1_dropShadow_5914_12480" result="shape"/>
</filter>
<filter id="filter1_d_5914_12480" x="233.5" y="10179" width="570" height="580" filterUnits="userSpaceOnUse" color-interpolation-filters="sRGB">
<feFlood flood-opacity="0" result="BackgroundImageFix"/>
<feColorMatrix in="SourceAlpha" type="matrix" values="0 0 0 0 0 0 0 0 0 0 0 0 0 0 0 0 0 0 127 0" result="hardAlpha"/>
<feOffset dx="10" dy="60"/>
<feGaussianBlur stdDeviation="25"/>
<feComposite in2="hardAlpha" operator="out"/>
<feColorMatrix type="matrix" values="0 0 0 0 0 0 0 0 0 0 0 0 0 0 0 0 0 0 0.5 0"/>
<feBlend mode="normal" in2="BackgroundImageFix" result="effect1_dropShadow_5914_12480"/>
<feBlend mode="normal" in="SourceGraphic" in2="effect1_dropShadow_5914_12480" result="shape"/>
</filter>
<filter id="filter2_d_5914_12480" x="67.6875" y="4385" width="922" height="922" filterUnits="userSpaceOnUse" color-interpolation-filters="sRGB">
<feFlood flood-opacity="0" result="BackgroundImageFix"/>
<feColorMatrix in="SourceAlpha" type="matrix" values="0 0 0 0 0 0 0 0 0 0 0 0 0 0 0 0 0 0 127 0" result="hardAlpha"/>
<feMorphology radius="15" operator="dilate" in="SourceAlpha" result="effect1_dropShadow_5914_12480"/>
<feOffset dx="20" dy="20"/>
<feGaussianBlur stdDeviation="19.5"/>
<feComposite in2="hardAlpha" operator="out"/>
<feColorMatrix type="matrix" values="0 0 0 0 0 0 0 0 0 0 0 0 0 0 0 0 0 0 0.25 0"/>
<feBlend mode="normal" in2="BackgroundImageFix" result="effect1_dropShadow_5914_12480"/>
<feBlend mode="normal" in="SourceGraphic" in2="effect1_dropShadow_5914_12480" result="shape"/>
</filter>
<filter id="filter3_d_5914_12480" x="233.688" y="4591" width="570" height="580" filterUnits="userSpaceOnUse" color-interpolation-filters="sRGB">
<feFlood flood-opacity="0" result="BackgroundImageFix"/>
<feColorMatrix in="SourceAlpha" type="matrix" values="0 0 0 0 0 0 0 0 0 0 0 0 0 0 0 0 0 0 127 0" result="hardAlpha"/>
<feOffset dx="10" dy="60"/>
<feGaussianBlur stdDeviation="25"/>
<feComposite in2="hardAlpha" operator="out"/>
<feColorMatrix type="matrix" values="0 0 0 0 0 0 0 0 0 0 0 0 0 0 0 0 0 0 0.5 0"/>
<feBlend mode="normal" in2="BackgroundImageFix" result="effect1_dropShadow_5914_12480"/>
<feBlend mode="normal" in="SourceGraphic" in2="effect1_dropShadow_5914_12480" result="shape"/>
</filter>
<filter id="filter4_d_5914_12480" x="67.7812" y="7179" width="922" height="922" filterUnits="userSpaceOnUse" color-interpolation-filters="sRGB">
<feFlood flood-opacity="0" result="BackgroundImageFix"/>
<feColorMatrix in="SourceAlpha" type="matrix" values="0 0 0 0 0 0 0 0 0 0 0 0 0 0 0 0 0 0 127 0" result="hardAlpha"/>
<feMorphology radius="15" operator="dilate" in="SourceAlpha" result="effect1_dropShadow_5914_12480"/>
<feOffset dx="20" dy="20"/>
<feGaussianBlur stdDeviation="19.5"/>
<feComposite in2="hardAlpha" operator="out"/>
<feColorMatrix type="matrix" values="0 0 0 0 0 0 0 0 0 0 0 0 0 0 0 0 0 0 0.25 0"/>
<feBlend mode="normal" in2="BackgroundImageFix" result="effect1_dropShadow_5914_12480"/>
<feBlend mode="normal" in="SourceGraphic" in2="effect1_dropShadow_5914_12480" result="shape"/>
</filter>
<filter id="filter5_d_5914_12480" x="233.781" y="7385" width="570" height="580" filterUnits="userSpaceOnUse" color-interpolation-filters="sRGB">
<feFlood flood-opacity="0" result="BackgroundImageFix"/>
<feColorMatrix in="SourceAlpha" type="matrix" values="0 0 0 0 0 0 0 0 0 0 0 0 0 0 0 0 0 0 127 0" result="hardAlpha"/>
<feOffset dx="10" dy="60"/>
<feGaussianBlur stdDeviation="25"/>
<feComposite in2="hardAlpha" operator="out"/>
<feColorMatrix type="matrix" values="0 0 0 0 0 0 0 0 0 0 0 0 0 0 0 0 0 0 0.5 0"/>
<feBlend mode="normal" in2="BackgroundImageFix" result="effect1_dropShadow_5914_12480"/>
<feBlend mode="normal" in="SourceGraphic" in2="effect1_dropShadow_5914_12480" result="shape"/>
</filter>
<filter id="filter6_d_5914_12480" x="67.5938" y="1591" width="922" height="922" filterUnits="userSpaceOnUse" color-interpolation-filters="sRGB">
<feFlood flood-opacity="0" result="BackgroundImageFix"/>
<feColorMatrix in="SourceAlpha" type="matrix" values="0 0 0 0 0 0 0 0 0 0 0 0 0 0 0 0 0 0 127 0" result="hardAlpha"/>
<feMorphology radius="15" operator="dilate" in="SourceAlpha" result="effect1_dropShadow_5914_12480"/>
<feOffset dx="20" dy="20"/>
<feGaussianBlur stdDeviation="19.5"/>
<feComposite in2="hardAlpha" operator="out"/>
<feColorMatrix type="matrix" values="0 0 0 0 0 0 0 0 0 0 0 0 0 0 0 0 0 0 0.25 0"/>
<feBlend mode="normal" in2="BackgroundImageFix" result="effect1_dropShadow_5914_12480"/>
<feBlend mode="normal" in="SourceGraphic" in2="effect1_dropShadow_5914_12480" result="shape"/>
</filter>
<filter id="filter7_d_5914_12480" x="233.594" y="1797" width="570" height="580" filterUnits="userSpaceOnUse" color-interpolation-filters="sRGB">
<feFlood flood-opacity="0" result="BackgroundImageFix"/>
<feColorMatrix in="SourceAlpha" type="matrix" values="0 0 0 0 0 0 0 0 0 0 0 0 0 0 0 0 0 0 127 0" result="hardAlpha"/>
<feOffset dx="10" dy="60"/>
<feGaussianBlur stdDeviation="25"/>
<feComposite in2="hardAlpha" operator="out"/>
<feColorMatrix type="matrix" values="0 0 0 0 0 0 0 0 0 0 0 0 0 0 0 0 0 0 0.5 0"/>
<feBlend mode="normal" in2="BackgroundImageFix" result="effect1_dropShadow_5914_12480"/>
<feBlend mode="normal" in="SourceGraphic" in2="effect1_dropShadow_5914_12480" result="shape"/>
</filter>
<filter id="filter8_d_5914_12480" x="67.6875" y="8576" width="922" height="922" filterUnits="userSpaceOnUse" color-interpolation-filters="sRGB">
<feFlood flood-opacity="0" result="BackgroundImageFix"/>
<feColorMatrix in="SourceAlpha" type="matrix" values="0 0 0 0 0 0 0 0 0 0 0 0 0 0 0 0 0 0 127 0" result="hardAlpha"/>
<feMorphology radius="15" operator="dilate" in="SourceAlpha" result="effect1_dropShadow_5914_12480"/>
<feOffset dx="20" dy="20"/>
<feGaussianBlur stdDeviation="19.5"/>
<feComposite in2="hardAlpha" operator="out"/>
<feColorMatrix type="matrix" values="0 0 0 0 0 0 0 0 0 0 0 0 0 0 0 0 0 0 0.25 0"/>
<feBlend mode="normal" in2="BackgroundImageFix" result="effect1_dropShadow_5914_12480"/>
<feBlend mode="normal" in="SourceGraphic" in2="effect1_dropShadow_5914_12480" result="shape"/>
</filter>
<filter id="filter9_d_5914_12480" x="233.688" y="8782" width="570" height="580" filterUnits="userSpaceOnUse" color-interpolation-filters="sRGB">
<feFlood flood-opacity="0" result="BackgroundImageFix"/>
<feColorMatrix in="SourceAlpha" type="matrix" values="0 0 0 0 0 0 0 0 0 0 0 0 0 0 0 0 0 0 127 0" result="hardAlpha"/>
<feOffset dx="10" dy="60"/>
<feGaussianBlur stdDeviation="25"/>
<feComposite in2="hardAlpha" operator="out"/>
<feColorMatrix type="matrix" values="0 0 0 0 0 0 0 0 0 0 0 0 0 0 0 0 0 0 0.5 0"/>
<feBlend mode="normal" in2="BackgroundImageFix" result="effect1_dropShadow_5914_12480"/>
<feBlend mode="normal" in="SourceGraphic" in2="effect1_dropShadow_5914_12480" result="shape"/>
</filter>
<filter id="filter10_d_5914_12480" x="67.5" y="2988" width="922" height="922" filterUnits="userSpaceOnUse" color-interpolation-filters="sRGB">
<feFlood flood-opacity="0" result="BackgroundImageFix"/>
<feColorMatrix in="SourceAlpha" type="matrix" values="0 0 0 0 0 0 0 0 0 0 0 0 0 0 0 0 0 0 127 0" result="hardAlpha"/>
<feMorphology radius="15" operator="dilate" in="SourceAlpha" result="effect1_dropShadow_5914_12480"/>
<feOffset dx="20" dy="20"/>
<feGaussianBlur stdDeviation="19.5"/>
<feComposite in2="hardAlpha" operator="out"/>
<feColorMatrix type="matrix" values="0 0 0 0 0 0 0 0 0 0 0 0 0 0 0 0 0 0 0.25 0"/>
<feBlend mode="normal" in2="BackgroundImageFix" result="effect1_dropShadow_5914_12480"/>
<feBlend mode="normal" in="SourceGraphic" in2="effect1_dropShadow_5914_12480" result="shape"/>
</filter>
<filter id="filter11_d_5914_12480" x="233.5" y="3194" width="570" height="580" filterUnits="userSpaceOnUse" color-interpolation-filters="sRGB">
<feFlood flood-opacity="0" result="BackgroundImageFix"/>
<feColorMatrix in="SourceAlpha" type="matrix" values="0 0 0 0 0 0 0 0 0 0 0 0 0 0 0 0 0 0 127 0" result="hardAlpha"/>
<feOffset dx="10" dy="60"/>
<feGaussianBlur stdDeviation="25"/>
<feComposite in2="hardAlpha" operator="out"/>
<feColorMatrix type="matrix" values="0 0 0 0 0 0 0 0 0 0 0 0 0 0 0 0 0 0 0.5 0"/>
<feBlend mode="normal" in2="BackgroundImageFix" result="effect1_dropShadow_5914_12480"/>
<feBlend mode="normal" in="SourceGraphic" in2="effect1_dropShadow_5914_12480" result="shape"/>
</filter>
<filter id="filter12_d_5914_12480" x="67.8672" y="5782" width="922" height="922" filterUnits="userSpaceOnUse" color-interpolation-filters="sRGB">
<feFlood flood-opacity="0" result="BackgroundImageFix"/>
<feColorMatrix in="SourceAlpha" type="matrix" values="0 0 0 0 0 0 0 0 0 0 0 0 0 0 0 0 0 0 127 0" result="hardAlpha"/>
<feMorphology radius="15" operator="dilate" in="SourceAlpha" result="effect1_dropShadow_5914_12480"/>
<feOffset dx="20" dy="20"/>
<feGaussianBlur stdDeviation="19.5"/>
<feComposite in2="hardAlpha" operator="out"/>
<feColorMatrix type="matrix" values="0 0 0 0 0 0 0 0 0 0 0 0 0 0 0 0 0 0 0.25 0"/>
<feBlend mode="normal" in2="BackgroundImageFix" result="effect1_dropShadow_5914_12480"/>
<feBlend mode="normal" in="SourceGraphic" in2="effect1_dropShadow_5914_12480" result="shape"/>
</filter>
<filter id="filter13_d_5914_12480" x="233.867" y="5988" width="570" height="580" filterUnits="userSpaceOnUse" color-interpolation-filters="sRGB">
<feFlood flood-opacity="0" result="BackgroundImageFix"/>
<feColorMatrix in="SourceAlpha" type="matrix" values="0 0 0 0 0 0 0 0 0 0 0 0 0 0 0 0 0 0 127 0" result="hardAlpha"/>
<feOffset dx="10" dy="60"/>
<feGaussianBlur stdDeviation="25"/>
<feComposite in2="hardAlpha" operator="out"/>
<feColorMatrix type="matrix" values="0 0 0 0 0 0 0 0 0 0 0 0 0 0 0 0 0 0 0.5 0"/>
<feBlend mode="normal" in2="BackgroundImageFix" result="effect1_dropShadow_5914_12480"/>
<feBlend mode="normal" in="SourceGraphic" in2="effect1_dropShadow_5914_12480" result="shape"/>
</filter>
<filter id="filter14_d_5914_12480" x="67.6875" y="194" width="922" height="922" filterUnits="userSpaceOnUse" color-interpolation-filters="sRGB">
<feFlood flood-opacity="0" result="BackgroundImageFix"/>
<feColorMatrix in="SourceAlpha" type="matrix" values="0 0 0 0 0 0 0 0 0 0 0 0 0 0 0 0 0 0 127 0" result="hardAlpha"/>
<feMorphology radius="15" operator="dilate" in="SourceAlpha" result="effect1_dropShadow_5914_12480"/>
<feOffset dx="20" dy="20"/>
<feGaussianBlur stdDeviation="19.5"/>
<feComposite in2="hardAlpha" operator="out"/>
<feColorMatrix type="matrix" values="0 0 0 0 0 0 0 0 0 0 0 0 0 0 0 0 0 0 0.25 0"/>
<feBlend mode="normal" in2="BackgroundImageFix" result="effect1_dropShadow_5914_12480"/>
<feBlend mode="normal" in="SourceGraphic" in2="effect1_dropShadow_5914_12480" result="shape"/>
</filter>
<filter id="filter15_d_5914_12480" x="233.688" y="400" width="570" height="580" filterUnits="userSpaceOnUse" color-interpolation-filters="sRGB">
<feFlood flood-opacity="0" result="BackgroundImageFix"/>
<feColorMatrix in="SourceAlpha" type="matrix" values="0 0 0 0 0 0 0 0 0 0 0 0 0 0 0 0 0 0 127 0" result="hardAlpha"/>
<feOffset dx="10" dy="60"/>
<feGaussianBlur stdDeviation="25"/>
<feComposite in2="hardAlpha" operator="out"/>
<feColorMatrix type="matrix" values="0 0 0 0 0 0 0 0 0 0 0 0 0 0 0 0 0 0 0.5 0"/>
<feBlend mode="normal" in2="BackgroundImageFix" result="effect1_dropShadow_5914_12480"/>
<feBlend mode="normal" in="SourceGraphic" in2="effect1_dropShadow_5914_12480" result="shape"/>
</filter>
<linearGradient id="paint0_linear_5914_12480" x1="282.294" y1="10085.8" x2="508.5" y2="10821" gradientUnits="userSpaceOnUse">
<stop stop-color="white" stop-opacity="0.33"/>
<stop offset="1" stop-opacity="0"/>
</linearGradient>
<linearGradient id="paint1_linear_5914_12480" x1="352.554" y1="10065.3" x2="640.453" y2="10776.4" gradientUnits="userSpaceOnUse">
<stop offset="0.222872" stop-color="white" stop-opacity="0.36"/>
<stop offset="0.510993" stop-opacity="0.19"/>
<stop offset="0.842102" stop-color="white" stop-opacity="0.18"/>
</linearGradient>
<linearGradient id="paint2_linear_5914_12480" x1="508.499" y1="10377.2" x2="508.499" y2="10471.4" gradientUnits="userSpaceOnUse">
<stop stop-color="#A0A0A0"/>
<stop offset="1" stop-color="white" stop-opacity="0.5"/>
</linearGradient>
<linearGradient id="paint3_linear_5914_12480" x1="508.499" y1="10377.2" x2="508.499" y2="10471.4" gradientUnits="userSpaceOnUse">
<stop offset="0.55917" stop-opacity="0"/>
<stop offset="1" stop-color="white" stop-opacity="0.21"/>
</linearGradient>
<radialGradient id="paint4_radial_5914_12480" cx="0" cy="0" r="1" gradientUnits="userSpaceOnUse" gradientTransform="translate(508.5 10414) rotate(88.1822) scale(480.439 756.333)">
<stop stop-color="white"/>
<stop offset="1" stop-color="#F9F9F9" stop-opacity="0"/>
</radialGradient>
<radialGradient id="paint5_radial_5914_12480" cx="0" cy="0" r="1" gradientUnits="userSpaceOnUse" gradientTransform="translate(508.5 10022.5) rotate(90) scale(841.706 2028.04)">
<stop stop-color="white"/>
<stop offset="0.09375" stop-color="#D9D9D9"/>
</radialGradient>
<linearGradient id="paint6_linear_5914_12480" x1="508.5" y1="9987.6" x2="508.5" y2="10485.4" gradientUnits="userSpaceOnUse">
<stop stop-color="#A7A7A7" stop-opacity="0.54"/>
<stop offset="1"/>
</linearGradient>
<radialGradient id="paint7_radial_5914_12480" cx="0" cy="0" r="1" gradientUnits="userSpaceOnUse" gradientTransform="translate(461.5 10030) rotate(72.4375) scale(155.76)">
<stop stop-color="white"/>
<stop offset="1" stop-color="#D9D9D9" stop-opacity="0"/>
</radialGradient>
<linearGradient id="paint8_linear_5914_12480" x1="282.481" y1="4497.83" x2="508.687" y2="5233" gradientUnits="userSpaceOnUse">
<stop stop-color="white" stop-opacity="0.33"/>
<stop offset="1" stop-opacity="0"/>
</linearGradient>
<linearGradient id="paint9_linear_5914_12480" x1="352.741" y1="4477.27" x2="640.64" y2="5188.44" gradientUnits="userSpaceOnUse">
<stop offset="0.222872" stop-color="white" stop-opacity="0.36"/>
<stop offset="0.510993" stop-opacity="0.19"/>
<stop offset="0.842102" stop-color="white" stop-opacity="0.18"/>
</linearGradient>
<linearGradient id="paint10_linear_5914_12480" x1="508.686" y1="4789.16" x2="508.686" y2="4883.41" gradientUnits="userSpaceOnUse">
<stop stop-color="#A0A0A0"/>
<stop offset="1" stop-color="white" stop-opacity="0.5"/>
</linearGradient>
<linearGradient id="paint11_linear_5914_12480" x1="508.686" y1="4789.16" x2="508.686" y2="4883.41" gradientUnits="userSpaceOnUse">
<stop offset="0.55917" stop-opacity="0"/>
<stop offset="1" stop-color="white" stop-opacity="0.21"/>
</linearGradient>
<radialGradient id="paint12_radial_5914_12480" cx="0" cy="0" r="1" gradientUnits="userSpaceOnUse" gradientTransform="translate(508.688 4826) rotate(88.1822) scale(480.439 756.333)">
<stop stop-color="white"/>
<stop offset="1" stop-color="#F9F9F9" stop-opacity="0"/>
</radialGradient>
<radialGradient id="paint13_radial_5914_12480" cx="0" cy="0" r="1" gradientUnits="userSpaceOnUse" gradientTransform="translate(508.688 4434.48) rotate(90) scale(841.706 2028.04)">
<stop stop-color="white"/>
<stop offset="0.09375" stop-color="#D9D9D9"/>
</radialGradient>
<linearGradient id="paint14_linear_5914_12480" x1="508.688" y1="4399.6" x2="508.688" y2="4897.44" gradientUnits="userSpaceOnUse">
<stop stop-color="#A7A7A7" stop-opacity="0.54"/>
<stop offset="1"/>
</linearGradient>
<radialGradient id="paint15_radial_5914_12480" cx="0" cy="0" r="1" gradientUnits="userSpaceOnUse" gradientTransform="translate(461.688 4442) rotate(72.4375) scale(155.76)">
<stop stop-color="white"/>
<stop offset="1" stop-color="#D9D9D9" stop-opacity="0"/>
</radialGradient>
<linearGradient id="paint16_linear_5914_12480" x1="282.575" y1="7291.83" x2="508.781" y2="8027" gradientUnits="userSpaceOnUse">
<stop stop-color="white" stop-opacity="0.33"/>
<stop offset="1" stop-opacity="0"/>
</linearGradient>
<linearGradient id="paint17_linear_5914_12480" x1="352.835" y1="7271.27" x2="640.734" y2="7982.44" gradientUnits="userSpaceOnUse">
<stop offset="0.222872" stop-color="white" stop-opacity="0.36"/>
<stop offset="0.510993" stop-opacity="0.19"/>
<stop offset="0.842102" stop-color="white" stop-opacity="0.18"/>
</linearGradient>
<linearGradient id="paint18_linear_5914_12480" x1="508.78" y1="7583.16" x2="508.78" y2="7677.41" gradientUnits="userSpaceOnUse">
<stop stop-color="#A0A0A0"/>
<stop offset="1" stop-color="white" stop-opacity="0.5"/>
</linearGradient>
<linearGradient id="paint19_linear_5914_12480" x1="508.78" y1="7583.16" x2="508.78" y2="7677.41" gradientUnits="userSpaceOnUse">
<stop offset="0.55917" stop-opacity="0"/>
<stop offset="1" stop-color="white" stop-opacity="0.21"/>
</linearGradient>
<radialGradient id="paint20_radial_5914_12480" cx="0" cy="0" r="1" gradientUnits="userSpaceOnUse" gradientTransform="translate(508.781 7620) rotate(88.1822) scale(480.439 756.333)">
<stop stop-color="white"/>
<stop offset="1" stop-color="#F9F9F9" stop-opacity="0"/>
</radialGradient>
<radialGradient id="paint21_radial_5914_12480" cx="0" cy="0" r="1" gradientUnits="userSpaceOnUse" gradientTransform="translate(508.781 7228.48) rotate(90) scale(841.706 2028.04)">
<stop stop-color="white"/>
<stop offset="0.09375" stop-color="#D9D9D9"/>
</radialGradient>
<linearGradient id="paint22_linear_5914_12480" x1="508.781" y1="7193.6" x2="508.781" y2="7691.44" gradientUnits="userSpaceOnUse">
<stop stop-color="#A7A7A7" stop-opacity="0.54"/>
<stop offset="1"/>
</linearGradient>
<radialGradient id="paint23_radial_5914_12480" cx="0" cy="0" r="1" gradientUnits="userSpaceOnUse" gradientTransform="translate(461.781 7236) rotate(72.4375) scale(155.76)">
<stop stop-color="white"/>
<stop offset="1" stop-color="#D9D9D9" stop-opacity="0"/>
</radialGradient>
<linearGradient id="paint24_linear_5914_12480" x1="282.387" y1="1703.83" x2="508.594" y2="2439" gradientUnits="userSpaceOnUse">
<stop stop-color="white" stop-opacity="0.33"/>
<stop offset="1" stop-opacity="0"/>
</linearGradient>
<linearGradient id="paint25_linear_5914_12480" x1="352.647" y1="1683.27" x2="640.546" y2="2394.44" gradientUnits="userSpaceOnUse">
<stop offset="0.222872" stop-color="white" stop-opacity="0.36"/>
<stop offset="0.510993" stop-opacity="0.19"/>
<stop offset="0.842102" stop-color="white" stop-opacity="0.18"/>
</linearGradient>
<linearGradient id="paint26_linear_5914_12480" x1="508.593" y1="1995.16" x2="508.593" y2="2089.41" gradientUnits="userSpaceOnUse">
<stop stop-color="#A0A0A0"/>
<stop offset="1" stop-color="white" stop-opacity="0.5"/>
</linearGradient>
<linearGradient id="paint27_linear_5914_12480" x1="508.593" y1="1995.16" x2="508.593" y2="2089.41" gradientUnits="userSpaceOnUse">
<stop offset="0.55917" stop-opacity="0"/>
<stop offset="1" stop-color="white" stop-opacity="0.21"/>
</linearGradient>
<radialGradient id="paint28_radial_5914_12480" cx="0" cy="0" r="1" gradientUnits="userSpaceOnUse" gradientTransform="translate(508.594 2032) rotate(88.1822) scale(480.439 756.333)">
<stop stop-color="white"/>
<stop offset="1" stop-color="#F9F9F9" stop-opacity="0"/>
</radialGradient>
<radialGradient id="paint29_radial_5914_12480" cx="0" cy="0" r="1" gradientUnits="userSpaceOnUse" gradientTransform="translate(508.594 1640.48) rotate(90) scale(841.706 2028.04)">
<stop stop-color="white"/>
<stop offset="0.09375" stop-color="#D9D9D9"/>
</radialGradient>
<linearGradient id="paint30_linear_5914_12480" x1="508.594" y1="1605.6" x2="508.594" y2="2103.44" gradientUnits="userSpaceOnUse">
<stop stop-color="#A7A7A7" stop-opacity="0.54"/>
<stop offset="1"/>
</linearGradient>
<radialGradient id="paint31_radial_5914_12480" cx="0" cy="0" r="1" gradientUnits="userSpaceOnUse" gradientTransform="translate(461.594 1648) rotate(72.4375) scale(155.76)">
<stop stop-color="white"/>
<stop offset="1" stop-color="#D9D9D9" stop-opacity="0"/>
</radialGradient>
<linearGradient id="paint32_linear_5914_12480" x1="282.481" y1="8688.83" x2="508.687" y2="9424" gradientUnits="userSpaceOnUse">
<stop stop-color="white" stop-opacity="0.33"/>
<stop offset="1" stop-opacity="0"/>
</linearGradient>
<linearGradient id="paint33_linear_5914_12480" x1="352.741" y1="8668.27" x2="640.64" y2="9379.44" gradientUnits="userSpaceOnUse">
<stop offset="0.222872" stop-color="white" stop-opacity="0.36"/>
<stop offset="0.510993" stop-opacity="0.19"/>
<stop offset="0.842102" stop-color="white" stop-opacity="0.18"/>
</linearGradient>
<linearGradient id="paint34_linear_5914_12480" x1="508.686" y1="8980.16" x2="508.686" y2="9074.41" gradientUnits="userSpaceOnUse">
<stop stop-color="#A0A0A0"/>
<stop offset="1" stop-color="white" stop-opacity="0.5"/>
</linearGradient>
<linearGradient id="paint35_linear_5914_12480" x1="508.686" y1="8980.16" x2="508.686" y2="9074.41" gradientUnits="userSpaceOnUse">
<stop offset="0.55917" stop-opacity="0"/>
<stop offset="1" stop-color="white" stop-opacity="0.21"/>
</linearGradient>
<radialGradient id="paint36_radial_5914_12480" cx="0" cy="0" r="1" gradientUnits="userSpaceOnUse" gradientTransform="translate(508.688 9017) rotate(88.1822) scale(480.439 756.333)">
<stop stop-color="white"/>
<stop offset="1" stop-color="#F9F9F9" stop-opacity="0"/>
</radialGradient>
<radialGradient id="paint37_radial_5914_12480" cx="0" cy="0" r="1" gradientUnits="userSpaceOnUse" gradientTransform="translate(508.688 8625.48) rotate(90) scale(841.706 2028.04)">
<stop stop-color="white"/>
<stop offset="0.09375" stop-color="#D9D9D9"/>
</radialGradient>
<linearGradient id="paint38_linear_5914_12480" x1="508.688" y1="8590.6" x2="508.688" y2="9088.44" gradientUnits="userSpaceOnUse">
<stop stop-color="#A7A7A7" stop-opacity="0.54"/>
<stop offset="1"/>
</linearGradient>
<radialGradient id="paint39_radial_5914_12480" cx="0" cy="0" r="1" gradientUnits="userSpaceOnUse" gradientTransform="translate(461.688 8633) rotate(72.4375) scale(155.76)">
<stop stop-color="white"/>
<stop offset="1" stop-color="#D9D9D9" stop-opacity="0"/>
</radialGradient>
<linearGradient id="paint40_linear_5914_12480" x1="282.294" y1="3100.83" x2="508.5" y2="3836" gradientUnits="userSpaceOnUse">
<stop stop-color="white" stop-opacity="0.33"/>
<stop offset="1" stop-opacity="0"/>
</linearGradient>
<linearGradient id="paint41_linear_5914_12480" x1="352.554" y1="3080.27" x2="640.453" y2="3791.44" gradientUnits="userSpaceOnUse">
<stop offset="0.222872" stop-color="white" stop-opacity="0.36"/>
<stop offset="0.510993" stop-opacity="0.19"/>
<stop offset="0.842102" stop-color="white" stop-opacity="0.18"/>
</linearGradient>
<linearGradient id="paint42_linear_5914_12480" x1="508.499" y1="3392.16" x2="508.499" y2="3486.41" gradientUnits="userSpaceOnUse">
<stop stop-color="#A0A0A0"/>
<stop offset="1" stop-color="white" stop-opacity="0.5"/>
</linearGradient>
<linearGradient id="paint43_linear_5914_12480" x1="508.499" y1="3392.16" x2="508.499" y2="3486.41" gradientUnits="userSpaceOnUse">
<stop offset="0.55917" stop-opacity="0"/>
<stop offset="1" stop-color="white" stop-opacity="0.21"/>
</linearGradient>
<radialGradient id="paint44_radial_5914_12480" cx="0" cy="0" r="1" gradientUnits="userSpaceOnUse" gradientTransform="translate(508.5 3429) rotate(88.1822) scale(480.439 756.333)">
<stop stop-color="white"/>
<stop offset="1" stop-color="#F9F9F9" stop-opacity="0"/>
</radialGradient>
<radialGradient id="paint45_radial_5914_12480" cx="0" cy="0" r="1" gradientUnits="userSpaceOnUse" gradientTransform="translate(508.5 3037.48) rotate(90) scale(841.706 2028.04)">
<stop stop-color="white"/>
<stop offset="0.09375" stop-color="#D9D9D9"/>
</radialGradient>
<linearGradient id="paint46_linear_5914_12480" x1="508.5" y1="3002.6" x2="508.5" y2="3500.44" gradientUnits="userSpaceOnUse">
<stop stop-color="#A7A7A7" stop-opacity="0.54"/>
<stop offset="1"/>
</linearGradient>
<radialGradient id="paint47_radial_5914_12480" cx="0" cy="0" r="1" gradientUnits="userSpaceOnUse" gradientTransform="translate(461.5 3045) rotate(72.4375) scale(155.76)">
<stop stop-color="white"/>
<stop offset="1" stop-color="#D9D9D9" stop-opacity="0"/>
</radialGradient>
<linearGradient id="paint48_linear_5914_12480" x1="282.661" y1="5894.83" x2="508.867" y2="6630" gradientUnits="userSpaceOnUse">
<stop stop-color="white" stop-opacity="0.33"/>
<stop offset="1" stop-opacity="0"/>
</linearGradient>
<linearGradient id="paint49_linear_5914_12480" x1="352.921" y1="5874.27" x2="640.82" y2="6585.44" gradientUnits="userSpaceOnUse">
<stop offset="0.222872" stop-color="white" stop-opacity="0.36"/>
<stop offset="0.510993" stop-opacity="0.19"/>
<stop offset="0.842102" stop-color="white" stop-opacity="0.18"/>
</linearGradient>
<linearGradient id="paint50_linear_5914_12480" x1="508.866" y1="6186.16" x2="508.866" y2="6280.41" gradientUnits="userSpaceOnUse">
<stop stop-color="#A0A0A0"/>
<stop offset="1" stop-color="white" stop-opacity="0.5"/>
</linearGradient>
<linearGradient id="paint51_linear_5914_12480" x1="508.866" y1="6186.16" x2="508.866" y2="6280.41" gradientUnits="userSpaceOnUse">
<stop offset="0.55917" stop-opacity="0"/>
<stop offset="1" stop-color="white" stop-opacity="0.21"/>
</linearGradient>
<radialGradient id="paint52_radial_5914_12480" cx="0" cy="0" r="1" gradientUnits="userSpaceOnUse" gradientTransform="translate(508.867 6223) rotate(88.1822) scale(480.439 756.333)">
<stop stop-color="white"/>
<stop offset="1" stop-color="#F9F9F9" stop-opacity="0"/>
</radialGradient>
<radialGradient id="paint53_radial_5914_12480" cx="0" cy="0" r="1" gradientUnits="userSpaceOnUse" gradientTransform="translate(508.867 5831.48) rotate(90) scale(841.706 2028.04)">
<stop stop-color="white"/>
<stop offset="0.09375" stop-color="#D9D9D9"/>
</radialGradient>
<linearGradient id="paint54_linear_5914_12480" x1="508.867" y1="5796.6" x2="508.867" y2="6294.44" gradientUnits="userSpaceOnUse">
<stop stop-color="#A7A7A7" stop-opacity="0.54"/>
<stop offset="1"/>
</linearGradient>
<radialGradient id="paint55_radial_5914_12480" cx="0" cy="0" r="1" gradientUnits="userSpaceOnUse" gradientTransform="translate(461.867 5839) rotate(72.4375) scale(155.76)">
<stop stop-color="white"/>
<stop offset="1" stop-color="#D9D9D9" stop-opacity="0"/>
</radialGradient>
<linearGradient id="paint56_linear_5914_12480" x1="282.481" y1="306.83" x2="508.687" y2="1042" gradientUnits="userSpaceOnUse">
<stop stop-color="white" stop-opacity="0.33"/>
<stop offset="1" stop-opacity="0"/>
</linearGradient>
<linearGradient id="paint57_linear_5914_12480" x1="352.741" y1="286.265" x2="640.64" y2="997.444" gradientUnits="userSpaceOnUse">
<stop offset="0.222872" stop-color="white" stop-opacity="0.36"/>
<stop offset="0.510993" stop-opacity="0.19"/>
<stop offset="0.842102" stop-color="white" stop-opacity="0.18"/>
</linearGradient>
<linearGradient id="paint58_linear_5914_12480" x1="508.686" y1="598.156" x2="508.686" y2="692.408" gradientUnits="userSpaceOnUse">
<stop stop-color="#A0A0A0"/>
<stop offset="1" stop-color="white" stop-opacity="0.5"/>
</linearGradient>
<linearGradient id="paint59_linear_5914_12480" x1="508.686" y1="598.156" x2="508.686" y2="692.408" gradientUnits="userSpaceOnUse">
<stop offset="0.55917" stop-opacity="0"/>
<stop offset="1" stop-color="white" stop-opacity="0.21"/>
</linearGradient>
<radialGradient id="paint60_radial_5914_12480" cx="0" cy="0" r="1" gradientUnits="userSpaceOnUse" gradientTransform="translate(508.688 635) rotate(88.1822) scale(480.439 756.333)">
<stop stop-color="white"/>
<stop offset="1" stop-color="#F9F9F9" stop-opacity="0"/>
</radialGradient>
<radialGradient id="paint61_radial_5914_12480" cx="0" cy="0" r="1" gradientUnits="userSpaceOnUse" gradientTransform="translate(508.688 243.482) rotate(90) scale(841.706 2028.04)">
<stop stop-color="white"/>
<stop offset="0.09375" stop-color="#D9D9D9"/>
</radialGradient>
<linearGradient id="paint62_linear_5914_12480" x1="508.688" y1="208.595" x2="508.688" y2="706.441" gradientUnits="userSpaceOnUse">
<stop stop-color="#A7A7A7" stop-opacity="0.54"/>
<stop offset="1"/>
</linearGradient>
<radialGradient id="paint63_radial_5914_12480" cx="0" cy="0" r="1" gradientUnits="userSpaceOnUse" gradientTransform="translate(461.688 251) rotate(72.4375) scale(155.76)">
<stop stop-color="white"/>
<stop offset="1" stop-color="#D9D9D9" stop-opacity="0"/>
</radialGradient>
</defs>
</svg>
