<svg width="1940" height="826" viewBox="0 0 1940 826" fill="none" xmlns="http://www.w3.org/2000/svg">
<path d="M774.164 139.75H811.914L840.914 156.5V250.5L811.914 267.25H774.164L756.414 257L738.664 267.25H732.164V83.5H756.414V150L774.164 139.75ZM756.414 161.5V245.5H816.664V161.5H756.414ZM900.096 214.75V245.5H950.346V214.75H900.096ZM904.846 267.25L875.846 250.5V209.75L904.846 193H950.346V162.75H888.346V141H945.596L974.596 157.75V267.25H968.096L950.346 257L932.596 267.25H904.846ZM1084.38 162.75H1038.88V266H1014.63V141H1032.88L1038.88 151.25L1056.63 141H1084.38V162.75ZM1205.8 208.5V249.25L1176.8 266H1111.8V244.25H1181.55V213.5H1140.8L1111.8 196.75V157.75L1140.8 141H1203.3V162.75H1136.05V191.75H1176.8L1205.8 208.5Z" fill="#EFEFEF"/>
<path fill-rule="evenodd" clip-rule="evenodd" d="M0 173H609.723V203H30V322H0V173ZM1325.89 173H1940V322H1910V203H1325.89V173Z" fill="#A09045"/>
<mask id="mask0_5914_12198" style="mask-type:alpha" maskUnits="userSpaceOnUse" x="15" y="434" width="392" height="392">
<rect x="40" y="459" width="342" height="342" stroke="#4B4933" stroke-width="50"/>
<path d="M144.007 716L200.757 541H221.257L278.007 716H255.007L243.257 680H178.507L166.757 716H144.007ZM185.007 659.25H236.757L210.757 579.5L185.007 659.25Z" fill="#4B4933"/>
</mask>
<g mask="url(#mask0_5914_12198)">
<rect x="-46" y="374" width="513" height="513" fill="url(#paint0_radial_5914_12198)"/>
</g>
<path fill-rule="evenodd" clip-rule="evenodd" d="M865 484H573V776H865V484ZM523 434V826H915V434H523Z" fill="#4B4933"/>
<path d="M662.228 716V696.5L741.478 623.25C750.728 613.75 754.478 604.5 754.478 595C754.478 574 738.228 558.75 718.978 558.75C698.728 558.75 682.978 574 683.228 595C683.228 604.5 688.478 613.75 695.228 620.75L680.728 634.25C670.728 624.75 661.978 610.25 661.978 595C661.978 564 685.728 538.75 718.978 538.75C751.228 538.75 776.478 564 776.478 595C776.478 610.25 769.478 626 756.228 638.25L695.228 695.5H775.478V716H662.228Z" fill="#4B4933"/>
<path fill-rule="evenodd" clip-rule="evenodd" d="M1373 484H1081V776H1373V484ZM1031 434V826H1423V434H1031Z" fill="#4B4933"/>
<path d="M1175.61 716V695.5H1215.86V649H1175.61V629L1250.11 533.5L1267.11 546.75L1203.11 628.5H1278.61V649H1238.11V695.5H1278.61V716H1175.61Z" fill="#4B4933"/>
<path fill-rule="evenodd" clip-rule="evenodd" d="M1881 484H1589V776H1881V484ZM1539 434V826H1931V434H1539Z" fill="#4B4933"/>
<path d="M1734.95 718.5C1703.7 718.5 1677.45 693.75 1677.45 662.25C1677.45 638.5 1691.7 622.25 1705.2 614C1695.45 604.75 1690.7 593.5 1690.7 581.5C1690.7 556.75 1710.45 538.25 1734.95 538.25C1759.7 538.25 1779.2 556.75 1779.2 581.5C1779.2 593.5 1774.7 604.75 1764.7 614C1778.45 622.25 1792.45 638.5 1792.45 662.25C1792.45 693.75 1766.45 718.5 1734.95 718.5ZM1699.7 662.25C1699.7 682.5 1715.7 698.75 1734.95 698.75C1754.2 698.75 1770.2 682.75 1770.2 662.25C1770.2 641.75 1754.45 625.75 1734.95 625.75C1715.45 625.75 1699.7 642 1699.7 662.25ZM1712.2 581.5C1712.2 594.75 1722.7 605.25 1734.95 605.25C1747.2 605.25 1757.7 595 1757.7 581.5C1757.7 568.25 1747.2 558 1734.95 558C1722.7 558 1712.2 568.25 1712.2 581.5Z" fill="#4B4933"/>
<defs>
<radialGradient id="paint0_radial_5914_12198" cx="0" cy="0" r="1" gradientUnits="userSpaceOnUse" gradientTransform="translate(210.5 630.5) rotate(90) scale(256.5)">
<stop offset="0.0986785" stop-color="white"/>
<stop offset="1" stop-color="#969C9C"/>
</radialGradient>
</defs>
</svg>
